<svg width="18" height="18" viewBox="0 0 18 18" xmlns="http://www.w3.org/2000/svg">
  <title>
    Filters Icon
  </title>
  <g fill="#FFF" fill-rule="evenodd">
    <circle cx="9" cy="5.25" r="5.25"/>
    <path d="M15.131 8.075a6.748 6.748 0 0 1-3.275 3.29 6.717 6.717 0 0 1-1.664 5.968A5.25 5.25 0 0 0 18 12.75a5.246 5.246 0 0 0-2.869-4.676zM9 12c-2.713 0-5.053-1.613-6.124-3.928A5.245 5.245 0 0 0 0 12.75a5.25 5.25 0 1 0 10.5 0c0-.308-.032-.609-.083-.902C9.96 11.946 9.486 12 9 12z"/>
  </g>
</svg>
