<svg width="66" height="66" viewBox="0 0 66 66" xmlns="http://www.w3.org/2000/svg">
  <title>
    Profile Pic + (Outline)
  </title>
  <g transform="translate(1 1)" stroke-width="2" stroke="#455054" fill="none" fill-rule="evenodd">
    <path d="M42.343 41.958c-3.932-.828-8.786-1.425-14.61-1.425-11.882 0-19.727 2.487-23.95 4.36A6.376 6.376 0 0 0 0 50.738v11.129h34.133M12.8 14.933C12.8 6.686 19.486 0 27.733 0c8.248 0 14.934 6.686 14.934 14.933C42.667 23.181 35.98 32 27.733 32 19.486 32 12.8 23.18 12.8 14.933zM51.2 46.933v8.534M46.933 51.2h8.534"/>
    <circle cx="51.2" cy="51.2" r="12.8"/>
  </g>
</svg>
