<?xml version="1.0" encoding="UTF-8"?>
<svg width="18px" height="16px" viewBox="0 0 18 16" version="1.1" xmlns="http://www.w3.org/2000/svg" xmlns:xlink="http://www.w3.org/1999/xlink">
    <!-- Generator: Sketch 41.2 (35397) - http://www.bohemiancoding.com/sketch -->
    <title>Camera (Basic) White</title>
    <desc>Created with Sketch.</desc>
    <defs></defs>
    <g id="Symbols" stroke="none" stroke-width="1" fill="none" fill-rule="evenodd">
        <g id="UI-Step-1-(v2)" transform="translate(-142.000000, -278.000000)" fill="#FFFFFF">
            <g id="Group">
                <g id="Action-Bar" transform="translate(0.000000, 270.000000)">
                    <g id="Actions" transform="translate(93.000000, 0.000000)">
                        <g id="Camera-Icon" transform="translate(7.000000, 0.000000)">
                            <g id="Camera-(Basic)-White" transform="translate(42.000000, 8.000000)">
                                <path d="M6.09677419,1.16129032 L2.03225806,1.16129032 L2.03225806,0.290322581 C2.03225806,0.130064516 2.16232258,0 2.32258065,0 L5.80645161,0 C5.96670968,0 6.09677419,0.130064516 6.09677419,0.290322581 L6.09677419,1.16129032 Z" id="Shape"></path>
                                <path d="M17.4193548,1.74193548 L0.580645161,1.74193548 C0.25983871,1.74193548 0,2.00177419 0,2.32258065 L0,15.0967742 C0,15.4175806 0.25983871,15.6774194 0.580645161,15.6774194 L17.4193548,15.6774194 C17.7401613,15.6774194 18,15.4175806 18,15.0967742 L18,2.32258065 C18,2.00177419 17.7401613,1.74193548 17.4193548,1.74193548 Z M4.06451613,5.51612903 C3.74429032,5.51612903 3.48387097,5.25570968 3.48387097,4.93548387 C3.48387097,4.61525806 3.74429032,4.35483871 4.06451613,4.35483871 C4.38474194,4.35483871 4.64516129,4.61525806 4.64516129,4.93548387 C4.64516129,5.25570968 4.38474194,5.51612903 4.06451613,5.51612903 Z M11.3225806,12.7741935 C9.24154839,12.7741935 7.5483871,11.0810323 7.5483871,9 C7.5483871,6.91896774 9.24154839,5.22580645 11.3225806,5.22580645 C13.4036129,5.22580645 15.0967742,6.91896774 15.0967742,9 C15.0967742,11.0810323 13.4036129,12.7741935 11.3225806,12.7741935 Z" id="Shape"></path>
                            </g>
                        </g>
                    </g>
                </g>
            </g>
        </g>
    </g>
</svg>