<svg width="18" height="16" viewBox="0 0 18 16" xmlns="http://www.w3.org/2000/svg">
  <title>
    Camera (Basic) White
  </title>
  <g fill="#FFF" fill-rule="evenodd">
    <path d="M6.097 1.161H2.032v-.87c0-.16.13-.291.29-.291h3.484c.16 0 .29.13.29.29v.871zM17.42 1.742H.58a.58.58 0 0 0-.58.58v12.775c0 .32.26.58.58.58h16.84c.32 0 .58-.26.58-.58V2.323a.58.58 0 0 0-.58-.581zM4.064 5.516a.581.581 0 1 1 0-1.162.581.581 0 0 1 0 1.162zm7.258 7.258A3.779 3.779 0 0 1 7.548 9a3.779 3.779 0 0 1 3.775-3.774A3.779 3.779 0 0 1 15.097 9a3.779 3.779 0 0 1-3.774 3.774z"/>
  </g>
</svg>
