<?xml version="1.0" encoding="UTF-8"?>
<svg width="20px" height="14px" viewBox="0 0 20 14" version="1.1" xmlns="http://www.w3.org/2000/svg" xmlns:xlink="http://www.w3.org/1999/xlink">
    <!-- Generator: Sketch 41.2 (35397) - http://www.bohemiancoding.com/sketch -->
    <title>Page 1</title>
    <desc>Created with Sketch.</desc>
    <defs></defs>
    <g id="Symbols" stroke="none" stroke-width="1" fill="none" fill-rule="evenodd">
        <g id="UI-Step-1-(v2)" transform="translate(-99.000000, -279.000000)" fill="#FFFFFF">
            <g id="Group">
                <g id="Action-Bar" transform="translate(0.000000, 270.000000)">
                    <g id="Actions" transform="translate(93.000000, 0.000000)">
                        <g id="Upload-Icon">
                            <path d="M22.7096774,14.8387097 C22.2580645,11.483871 19.4193548,9 16,9 C13.0645161,9 10.516129,10.8387097 9.58064516,13.6129032 C7.48387097,14.0645161 6,15.8709677 6,18.0322581 C6,20.3870968 7.83870968,22.3548387 10.1935484,22.5483871 L22.4516129,22.5483871 L22.483871,22.5483871 C24.4516129,22.3548387 26,20.6774194 26,18.6774194 C26,16.7741935 24.5806452,15.1290323 22.7096774,14.8387097 Z M19.4516129,16.6451613 C19.3870968,16.7096774 19.3225806,16.7419355 19.2258065,16.7419355 C19.1290323,16.7419355 19.0645161,16.7096774 19,16.6451613 L16.3225806,13.9677419 L16.3225806,20.2903226 C16.3225806,20.483871 16.1935484,20.6129032 16,20.6129032 C15.8064516,20.6129032 15.6774194,20.483871 15.6774194,20.2903226 L15.6774194,13.9677419 L13,16.6451613 C12.8709677,16.7741935 12.6774194,16.7741935 12.5483871,16.6451613 C12.4193548,16.516129 12.4193548,16.3225806 12.5483871,16.1935484 L15.7741935,12.9677419 C15.8064516,12.9354839 15.8387097,12.9032258 15.8709677,12.9032258 C15.9354839,12.8709677 16.0322581,12.8709677 16.1290323,12.9032258 C16.1612903,12.9354839 16.1935484,12.9354839 16.2258065,12.9677419 L19.4516129,16.1935484 C19.5806452,16.3225806 19.5806452,16.516129 19.4516129,16.6451613 Z" id="Page-1"></path>
                        </g>
                    </g>
                </g>
            </g>
        </g>
    </g>
</svg>