<svg width="20" height="14" viewBox="0 0 20 14" xmlns="http://www.w3.org/2000/svg">
  <title>
    Page 1
  </title>
  <path d="M16.71 5.839C16.258 2.484 13.42 0 10 0a6.732 6.732 0 0 0-6.42 4.613C1.485 5.065 0 6.87 0 9.033c0 2.354 1.839 4.322 4.194 4.515h12.29c1.968-.193 3.516-1.87 3.516-3.87a3.913 3.913 0 0 0-3.29-3.84zm-3.258 1.806a.293.293 0 0 1-.226.097.293.293 0 0 1-.226-.097l-2.677-2.677v6.322c0 .194-.13.323-.323.323-.194 0-.323-.13-.323-.323V4.968L7 7.645a.312.312 0 0 1-.452 0 .312.312 0 0 1 0-.451l3.226-3.226c.032-.033.065-.065.097-.065.064-.032.161-.032.258 0 .032.032.065.032.097.065l3.226 3.226a.312.312 0 0 1 0 .451z" fill="#FFF" fill-rule="evenodd"/>
</svg>
